Coordinates
version=1
nRows=12
nColumns=24
inDegrees=yes

Units are S.I. units (second, meters, Newtons, ...)
Angles are in degrees.

endheader
time	pelvis_tilt	pelvis_list	pelvis_rotation	pelvis_tx	pelvis_ty	pelvis_tz	hip_flexion_r	hip_adduction_r	hip_rotation_r	knee_angle_r	ankle_angle_r	subtalar_angle_r	mtp_angle_r	hip_flexion_l	hip_adduction_l	hip_rotation_l	knee_angle_l	ankle_angle_l	subtalar_angle_l	mtp_angle_l	lumbar_extension	lumbar_bending	lumbar_rotation
      4.84000000	    -11.30791733	      4.59151834	     -1.37947356	      0.09319198	      0.96031034	     -0.00749498	     22.49213626	     -6.27274914	     -1.08539595	    -59.82850997	     -9.94505997	      0.00000000	      0.00000000	     24.23364688	      8.17664121	      2.36053766	    -19.00233837	      6.66586665	      0.00000000	      0.00000000	      7.52345858	     -3.77981017	     -2.30431188
      4.85000000	    -11.23504623	      4.42707350	     -1.27051321	      0.09206141	      0.96100922	     -0.00828092	     23.55617627	     -6.26266839	     -1.52978898	    -60.18387850	     -7.96988117	      0.00000000	      0.00000000	     23.64135536	      8.13190310	      2.50522300	    -18.85846516	      6.97987276	      0.00000000	      0.00000000	      7.36203760	     -3.58885296	     -2.57815451
      4.86000000	    -11.15202158	      4.27506785	     -1.15624437	      0.09081477	      0.96169117	     -0.00903970	     24.58058397	     -6.26025666	     -1.95736162	    -60.31934449	     -6.00496215	      0.00000000	      0.00000000	     23.07877023	      8.09934844	      2.63274495	    -18.78492761	      7.25639865	      0.00000000	      0.00000000	      7.17865895	     -3.41764716	     -2.81127087
      4.87000000	    -11.13154418	      4.07795511	     -1.13453520	      0.08972133	      0.96240870	     -0.00970072	     25.59608243	     -6.17486962	     -2.29538293	    -60.11002533	     -4.59975529	      0.00000000	      0.00000000	     22.45758129	      7.97022574	      2.64133440	    -18.47299751	      7.52908825	      0.00000000	      0.00000000	      7.12073672	     -3.15756120	     -2.97283265
      4.88000000	    -11.11381654	      3.88705831	     -1.12154151	      0.08847396	      0.96304470	     -0.01025595	     26.58991816	     -6.07998012	     -2.61435852	    -59.72120331	     -3.12324444	      0.00000000	      0.00000000	     21.88071253	      7.83830901	      2.65408011	    -18.22023028	      7.77657146	      0.00000000	      0.00000000	      7.03703522	     -2.91803586	     -3.07874893
      4.89000000	    -11.12098239	      3.71389753	     -1.14412581	      0.08730762	      0.96366170	     -0.01080366	     27.54376146	     -5.99187180	     -2.90056876	    -59.05802438	     -1.92663054	      0.00000000	      0.00000000	     21.30654153	      7.71632146	      2.64007941	    -17.93487149	      8.01007137	      0.00000000	      0.00000000	      7.01164293	     -2.67410524	     -3.12257892
      4.90000000	    -11.14683979	      3.56327882	     -1.19467001	      0.08609029	      0.96426012	     -0.01120755	     28.44376046	     -5.88194102	     -3.09253656	    -58.13750146	     -0.85912111	      0.00000000	      0.00000000	     20.77037222	      7.60853337	      2.66398742	    -17.68214191	      8.21743153	      0.00000000	      0.00000000	      6.99658090	     -2.47387076	     -3.14465361
      4.91000000	    -11.19520783	      3.39294056	     -1.24805585	      0.08481696	      0.96474277	     -0.01155101	     29.33820522	     -5.73761044	     -3.26106937	    -57.08231289	      0.19451942	      0.00000000	      0.00000000	     20.23602456	      7.47353684	      2.70104100	    -17.37692238	      8.43393358	      0.00000000	      0.00000000	      6.99493717	     -2.24252364	     -3.16332963
      4.92000000	    -11.25206915	      3.16972639	     -1.31828051	      0.08355373	      0.96514984	     -0.01175958	     30.16874023	     -5.50697885	     -3.42993279	    -55.84007802	      1.43003545	      0.00000000	      0.00000000	     19.71864616	      7.28537821	      2.81372516	    -17.10393070	      8.65990943	      0.00000000	      0.00000000	      7.00367209	     -1.96008117	     -3.16617790
      4.93000000	    -11.33778990	      3.01196867	     -1.39691428	      0.08226380	      0.96549289	     -0.01195481	     30.98037994	     -5.35476359	     -3.55475293	    -54.40744213	      2.16214051	      0.00000000	      0.00000000	     19.22105245	      7.15430742	      2.93325494	    -16.78183958	      8.89622154	      0.00000000	      0.00000000	      7.02973268	     -1.74326849	     -3.15257277
      4.94000000	    -11.44552848	      2.82245632	     -1.48332228	      0.08105962	      0.96577497	     -0.01209246	     31.72777941	     -5.13960720	     -3.64796443	    -52.76374748	      2.91572289	      0.00000000	      0.00000000	     18.73273183	      6.99852224	      3.12700975	    -16.46161155	      9.14560010	      0.00000000	      0.00000000	      7.09871532	     -1.48470191	     -3.13580967
      4.95000000	    -11.52446920	      2.76058909	     -1.55384533	      0.07971271	      0.96597155	     -0.01215357	     32.43694899	     -5.05037359	     -3.66597556	    -51.03886552	      3.34747731	      0.00000000	      0.00000000	     18.31172678	      6.98157922	      3.30736421	    -16.31176300	      9.34886237	      0.00000000	      0.00000000	      7.09732247	     -1.39797890	     -3.10150738
